<svg width="27" height="27" viewBox="0 0 27 27" fill="none" xmlns="http://www.w3.org/2000/svg">
<path d="M25.42 3.35789C26.288 2.48401 26.5307 2.13964 25.6628 1.26575C24.7948 0.391865 23.9116 1.27304 23.0437 2.14692L13.8869 11.3664L3.96702 1.76279C3.09908 0.888909 2.43366 0.391866 1.56571 1.26575C0.697772 2.13964 1.19138 2.80962 2.05932 3.68351L11.9792 13.3968L2.05933 22.8908C1.19139 23.7647 0.697744 24.654 1.56569 25.5279C2.43363 26.4017 3.09906 25.3013 3.967 24.4274L13.8869 14.8237L23.0437 24.4274C23.9116 25.3013 24.7948 26.4017 25.6628 25.5279C26.5307 24.654 25.8193 24.1489 24.9514 23.275L15.5517 13.3968L25.42 3.35789Z" fill="#525252" stroke="#525252" stroke-width="1.25467" stroke-linecap="round"/>
</svg>
