<svg width="47" height="47" viewBox="0 0 47 47" fill="none" xmlns="http://www.w3.org/2000/svg">
<circle cx="23.5077" cy="23.7278" r="22.5841" fill="#FBC702" stroke="#E5A800" stroke-width="1.25467"/>
<path d="M18.3582 33.6856C17.9856 33.6856 17.6396 33.5667 17.3341 33.3542C17.2948 33.3277 17.2681 33.3011 17.2415 33.2746C17.2149 33.2618 17.2011 33.2353 17.1883 33.2214C17.1351 33.1811 17.1085 33.1418 17.0691 33.1025C17.0425 33.0759 17.0286 33.0494 17.0031 33.0228L16.9903 33.0101C16.9637 32.9835 16.9499 32.957 16.9371 32.9304L16.9105 32.89C16.8573 32.8104 16.8179 32.7307 16.7774 32.6511C16.7647 32.6118 16.7508 32.5714 16.737 32.5321C16.7242 32.4917 16.7104 32.4397 16.6976 32.3993C16.6838 32.3462 16.671 32.2804 16.6571 32.2134C16.6571 32.1869 16.6444 32.1476 16.6444 32.121C16.6444 32.0679 16.6316 32.0148 16.6316 31.9617C16.6316 31.8693 16.6444 31.7758 16.6582 31.6696L17.6822 25.7257L13.3605 21.5194C13.2806 21.4398 13.2008 21.3474 13.1348 21.2539C13.055 21.1349 13.0017 21.0414 12.9624 20.9352C12.9496 20.8959 12.923 20.8428 12.9091 20.7759C12.8687 20.6166 12.8431 20.4573 12.8431 20.2852C12.8431 20.2321 12.8431 20.1928 12.8431 20.1397C12.8431 20.06 12.8559 19.9803 12.8825 19.9007C12.8825 19.8879 12.8953 19.8614 12.8953 19.8476C12.9091 19.8072 12.9091 19.7679 12.9219 19.7286C12.9219 19.7159 12.9347 19.6882 12.9485 19.6489C12.9613 19.6086 12.9751 19.5693 13.0017 19.53C13.0411 19.4503 13.0816 19.3706 13.1476 19.2782C13.1742 19.2251 13.2136 19.1858 13.254 19.1455C13.254 19.1455 13.254 19.1327 13.2668 19.1327L13.4797 18.7875H13.666C13.6926 18.7737 13.7054 18.761 13.732 18.7471C13.7586 18.7344 13.8118 18.7078 13.8512 18.6813C13.9044 18.6547 13.9704 18.6282 14.0503 18.6016C14.0769 18.5889 14.1162 18.5751 14.1567 18.5751C14.2099 18.5623 14.2631 18.5485 14.3291 18.5347L20.3125 17.6722L22.945 12.2987C23.2377 11.7017 23.8359 11.33 24.5002 11.33C24.9792 11.33 25.4443 11.5286 25.7765 11.8738C25.8297 11.9396 25.8829 11.9928 25.9223 12.0597C25.9755 12.1393 26.0287 12.219 26.0681 12.2987L28.741 17.685L34.7106 18.5475C35.3759 18.6399 35.9209 19.1051 36.1199 19.7413C36.1338 19.7817 36.1465 19.8072 36.1465 19.8476C36.1465 19.8603 36.1465 19.8603 36.1593 19.8741C36.1721 19.9145 36.1859 19.9538 36.1859 20.0069C36.1859 20.0196 36.1859 20.0196 36.1859 20.0334C36.1987 20.0866 36.1987 20.1259 36.1987 20.179C36.2125 20.4307 36.1721 20.6962 36.0656 20.9352C36.0252 21.0414 35.973 21.1339 35.906 21.2273L35.8921 21.2401C35.8261 21.3325 35.7463 21.426 35.6665 21.5056L31.3447 25.7118L32.3687 31.642C32.4752 32.292 32.2229 32.9421 31.6768 33.3404C31.5438 33.4328 31.3841 33.5263 31.2244 33.5794C31.2106 33.5794 31.1978 33.5932 31.1712 33.5932C30.9988 33.6463 30.8252 33.6729 30.6528 33.6729C30.3739 33.6729 30.094 33.607 29.8417 33.4742L24.497 30.6743L19.1523 33.4742C18.9159 33.6198 18.6371 33.6856 18.3582 33.6856Z" fill="#E5A800"/>
<path d="M24.5005 12.1787V23.151L20.8302 18.4679L23.7021 12.6705C23.8756 12.3519 24.195 12.1787 24.5005 12.1787Z" fill="#FFFAF6"/>
<path d="M35.31 20.0207L24.5131 23.152L28.1823 18.4689L34.5915 19.3972C34.9513 19.4631 35.2035 19.7148 35.31 20.0207Z" fill="#FEE0AC"/>
<path d="M31.1751 32.6638L24.5009 23.1509L30.431 25.4197L31.521 31.7885C31.5998 32.1603 31.4401 32.4779 31.1751 32.6638Z" fill="#ECB76B"/>
<path d="M24.5005 23.1509V29.7184L18.7694 32.7296C18.4373 32.9017 18.0913 32.8486 17.8252 32.6638L24.5005 23.1509Z" fill="#F1A341"/>
<path d="M28.1707 18.4679L24.5004 23.151V12.1787C24.7399 12.1787 24.9794 12.2712 25.1518 12.457C25.1784 12.4836 25.205 12.5229 25.2317 12.5632C25.2583 12.6036 25.2849 12.6429 25.2977 12.6822L28.1707 18.4679Z" fill="#FFE9BA"/>
<path d="M35.2829 20.6178C35.2563 20.6709 35.2297 20.724 35.2031 20.7771C35.1626 20.8302 35.1233 20.8695 35.0839 20.9226L30.4438 25.4337L24.5137 23.1649L35.3106 20.0336C35.3106 20.0463 35.3234 20.0601 35.3234 20.0739C35.3234 20.0877 35.3372 20.1005 35.3372 20.127C35.3372 20.1408 35.3372 20.1408 35.3372 20.1408C35.3372 20.1536 35.3372 20.1674 35.3372 20.1801C35.3372 20.2067 35.3372 20.2205 35.3372 20.246C35.35 20.365 35.3362 20.4977 35.2829 20.6178Z" fill="#E49632"/>
<path d="M31.1757 32.6638C31.1097 32.7169 31.0298 32.7562 30.9362 32.7828C30.9234 32.7828 30.9234 32.7828 30.9095 32.7955C30.6966 32.8614 30.4571 32.8486 30.2315 32.7296L24.5004 29.7184V23.1509L31.1757 32.6638Z" fill="#E29136"/>
<path d="M24.5001 23.1509L17.8258 32.6638C17.8131 32.65 17.7992 32.6372 17.7865 32.6234C17.7737 32.6107 17.7598 32.5969 17.746 32.583C17.7332 32.5703 17.7194 32.5565 17.6928 32.5299C17.6789 32.5172 17.6662 32.5034 17.6523 32.4896C17.6385 32.4758 17.6396 32.4768 17.6396 32.463C17.6268 32.4503 17.613 32.4365 17.613 32.4227C17.5863 32.3834 17.5597 32.343 17.547 32.3037C17.5342 32.291 17.5342 32.2633 17.5203 32.2378C17.5076 32.2113 17.5076 32.1975 17.4937 32.172C17.481 32.1454 17.481 32.1061 17.481 32.0796C17.481 32.0668 17.481 32.0392 17.481 32.0265C17.481 31.9999 17.481 31.9734 17.481 31.9468C17.481 31.8937 17.481 31.8406 17.4937 31.7875L18.5838 25.4187L24.5001 23.1509Z" fill="#FED891"/>
<path d="M24.5003 23.1509L13.7034 20.0196C13.7034 20.0069 13.7161 19.9931 13.7161 19.9793C13.7289 19.9527 13.7289 19.9262 13.7428 19.9134C13.7694 19.8603 13.796 19.821 13.8226 19.7806C13.8354 19.7541 13.8492 19.7403 13.8758 19.7148C13.8897 19.702 13.9024 19.6744 13.929 19.6617C13.9418 19.6489 13.9695 19.6224 13.9823 19.6086C13.995 19.5948 14.0216 19.582 14.0355 19.5682C14.0621 19.5555 14.0887 19.5278 14.1153 19.5151C14.1281 19.5023 14.1547 19.4885 14.1813 19.4885C14.2218 19.4758 14.2473 19.462 14.2878 19.4482C14.3005 19.4482 14.3144 19.4354 14.341 19.4354C14.3676 19.4227 14.407 19.4227 14.4474 19.4089L20.8566 18.4805L24.5003 23.1509Z" fill="#FFF3D9"/>
<path d="M24.5002 23.151L18.5839 25.4325L13.9439 20.9215C13.8906 20.8811 13.864 20.8291 13.8246 20.776C13.798 20.7229 13.7586 20.6698 13.7448 20.6166C13.732 20.5901 13.7182 20.5635 13.7182 20.537C13.6916 20.4573 13.6777 20.3649 13.6777 20.2852C13.6777 20.2587 13.6777 20.2321 13.6777 20.2056C13.6777 20.1663 13.6777 20.1397 13.6916 20.0994C13.6916 20.0866 13.7043 20.0728 13.7043 20.0463C13.7043 20.0335 13.7171 20.0197 13.7171 20.007L24.5002 23.151Z" fill="#ECB76B"/>
</svg>
